<svg width="169" height="28" viewBox="0 0 169 28" fill="none" xmlns="http://www.w3.org/2000/svg">
<path d="M23.0996 22.1988C25.1889 19.8789 26.3136 16.8489 26.2441 13.7277C26.1746 10.6065 24.916 7.62955 22.7255 5.40503L18.7383 9.33131C19.9282 10.5397 20.6119 12.1568 20.6497 13.8523C20.6874 15.5478 20.0764 17.1938 18.9415 18.4539L23.0996 22.1988Z" fill="#49BEFF"/>
<path d="M22.7073 5.38424C20.8883 3.54585 18.5342 2.33026 15.9822 1.9116C13.4301 1.49294 10.811 1.89267 8.5 3.05355L11.0118 8.05396C12.2672 7.42335 13.69 7.20621 15.0763 7.43363C16.4626 7.66106 17.7414 8.32138 18.7295 9.32002L22.7073 5.38424Z" fill="#13DEB9"/>
<path d="M9.34728 2.66821C7.64714 3.36631 6.12586 4.43801 4.89616 5.80389C3.66645 7.16977 2.75982 8.79484 2.24345 10.5587C1.72708 12.3225 1.6142 14.18 1.91317 15.9934C2.21215 17.8068 2.91531 19.5297 3.97056 21.0344C5.02582 22.5392 6.40612 23.7872 8.00921 24.6861C9.6123 25.5849 11.3971 26.1115 13.2313 26.2269C15.0656 26.3423 16.9023 26.0435 18.6054 25.3527C20.3085 24.6618 21.8343 23.5966 23.0699 22.236L18.9271 18.4742C18.256 19.2133 17.4271 19.7919 16.502 20.1672C15.5768 20.5425 14.5791 20.7048 13.5827 20.6421C12.5863 20.5794 11.6168 20.2934 10.7459 19.8051C9.87512 19.3168 9.12532 18.6389 8.55208 17.8215C7.97885 17.0041 7.59689 16.0682 7.43448 15.0831C7.27207 14.098 7.33339 13.089 7.61389 12.1309C7.89439 11.1727 8.38688 10.29 9.05488 9.54801C9.72288 8.80604 10.5493 8.22388 11.4728 7.84466L9.34728 2.66821Z" fill="#5D87FF"/>
<path d="M39.9545 21.5V9.38461H36.2132V7.05846H46.2932V9.38461H42.6102V21.5H39.9545ZM49.3448 21.7326C48.6082 21.7326 47.9685 21.6098 47.4257 21.3643C46.8829 21.1188 46.4629 20.7698 46.1657 20.3175C45.8685 19.8523 45.7199 19.316 45.7199 18.7086C45.7199 18.1271 45.8491 17.6102 46.1076 17.1578C46.366 16.6926 46.7666 16.3049 47.3094 15.9948C47.8522 15.6846 48.5371 15.4649 49.3642 15.3357L52.8146 14.7735V16.712L49.8488 17.216C49.3448 17.3065 48.97 17.468 48.7245 17.7006C48.4789 17.9332 48.3562 18.2369 48.3562 18.6117C48.3562 18.9735 48.4919 19.2643 48.7633 19.484C49.0476 19.6908 49.3965 19.7942 49.81 19.7942C50.3399 19.7942 50.8051 19.6843 51.2057 19.4646C51.6193 19.232 51.9359 18.9154 52.1556 18.5148C52.3882 18.1142 52.5045 17.6748 52.5045 17.1966V14.4828C52.5045 14.0305 52.3236 13.6557 51.9617 13.3585C51.6128 13.0483 51.1476 12.8932 50.566 12.8932C50.0233 12.8932 49.5386 13.0418 49.1122 13.3391C48.6986 13.6234 48.3949 14.0046 48.2011 14.4828L46.1269 13.4748C46.3337 12.9191 46.6568 12.4409 47.0962 12.0403C47.5485 11.6268 48.0783 11.3037 48.6857 11.0711C49.2931 10.8385 49.9522 10.7222 50.6629 10.7222C51.5288 10.7222 52.2913 10.8837 52.9503 11.2068C53.6094 11.5169 54.1199 11.9563 54.4817 12.5249C54.8565 13.0806 55.0439 13.7332 55.0439 14.4828V21.5H52.6402V19.6972L53.1829 19.6585C52.9116 20.1108 52.5885 20.492 52.2137 20.8022C51.8389 21.0994 51.4125 21.332 50.9343 21.5C50.4562 21.6551 49.9263 21.7326 49.3448 21.7326ZM57.0032 21.5V10.9548H59.5426V21.5H57.0032ZM57.0032 9.77231V7.05846H59.5426V9.77231H57.0032ZM61.4996 21.5V6.82584H64.0389V21.5H61.4996ZM68.6516 21.5L65.0266 10.9548H67.7017L70.3574 18.9606L69.427 18.9412L72.2571 10.9548H74.5057L77.3165 18.9412L76.386 18.9606L79.0417 10.9548H81.7168L78.0919 21.5H75.8239L72.955 13.1452H73.8079L70.9002 21.5H68.6516ZM82.7212 21.5V10.9548H85.2606V21.5H82.7212ZM82.7212 9.77231V7.05846H85.2606V9.77231H82.7212ZM87.2175 21.5V10.9548H89.6018V13.0289L89.408 12.6606C89.6535 12.0274 90.0541 11.5492 90.6098 11.2262C91.1784 10.8902 91.8375 10.7222 92.587 10.7222C93.3624 10.7222 94.0473 10.8902 94.6418 11.2262C95.2492 11.5622 95.7209 12.0338 96.0569 12.6412C96.3929 13.2357 96.5609 13.9271 96.5609 14.7154V21.5H94.0215V15.3163C94.0215 14.8511 93.931 14.4505 93.7501 14.1145C93.5692 13.7785 93.3172 13.52 92.9941 13.3391C92.684 13.1452 92.3156 13.0483 91.8892 13.0483C91.4756 13.0483 91.1073 13.1452 90.7843 13.3391C90.4612 13.52 90.2092 13.7785 90.0283 14.1145C89.8473 14.4505 89.7569 14.8511 89.7569 15.3163V21.5H87.2175ZM103.225 21.7326C102.204 21.7326 101.293 21.4935 100.492 21.0154C99.6903 20.5243 99.0571 19.8588 98.5919 19.0188C98.1266 18.1788 97.894 17.2483 97.894 16.2274C97.894 15.1935 98.1266 14.2631 98.5919 13.436C99.0571 12.6089 99.6903 11.9498 100.492 11.4588C101.306 10.9677 102.21 10.7222 103.205 10.7222C104.007 10.7222 104.717 10.8837 105.338 11.2068C105.971 11.5169 106.468 11.9563 106.83 12.5249L106.443 13.0483V6.82584H108.982V21.5H106.578V19.4646L106.85 19.9686C106.488 20.5372 105.984 20.9766 105.338 21.2868C104.692 21.584 103.987 21.7326 103.225 21.7326ZM103.496 19.4065C104.078 19.4065 104.588 19.2708 105.028 18.9994C105.467 18.728 105.809 18.3532 106.055 17.8751C106.313 17.3969 106.443 16.8477 106.443 16.2274C106.443 15.62 106.313 15.0772 106.055 14.5991C105.809 14.108 105.467 13.7268 105.028 13.4554C104.588 13.184 104.078 13.0483 103.496 13.0483C102.928 13.0483 102.417 13.1905 101.965 13.4748C101.512 13.7462 101.157 14.1209 100.899 14.5991C100.653 15.0643 100.53 15.6071 100.53 16.2274C100.53 16.8477 100.653 17.3969 100.899 17.8751C101.157 18.3532 101.512 18.728 101.965 18.9994C102.417 19.2708 102.928 19.4065 103.496 19.4065ZM109.988 21.5L114.969 7.05846H118.381L123.363 21.5H120.494L119.467 18.3985H113.884L112.837 21.5H109.988ZM114.64 16.0723H118.711L116.307 8.88061H117.044L114.64 16.0723ZM128.895 21.7326C127.874 21.7326 126.963 21.4935 126.162 21.0154C125.361 20.5243 124.727 19.8588 124.262 19.0188C123.797 18.1788 123.564 17.2483 123.564 16.2274C123.564 15.1935 123.797 14.2631 124.262 13.436C124.727 12.6089 125.361 11.9498 126.162 11.4588C126.976 10.9677 127.881 10.7222 128.876 10.7222C129.677 10.7222 130.388 10.8837 131.008 11.2068C131.641 11.5169 132.139 11.9563 132.501 12.5249L132.113 13.0483V6.82584H134.652V21.5H132.249V19.4646L132.52 19.9686C132.158 20.5372 131.654 20.9766 131.008 21.2868C130.362 21.584 129.657 21.7326 128.895 21.7326ZM129.166 19.4065C129.748 19.4065 130.258 19.2708 130.698 18.9994C131.137 18.728 131.48 18.3532 131.725 17.8751C131.984 17.3969 132.113 16.8477 132.113 16.2274C132.113 15.62 131.984 15.0772 131.725 14.5991C131.48 14.108 131.137 13.7268 130.698 13.4554C130.258 13.184 129.748 13.0483 129.166 13.0483C128.598 13.0483 128.087 13.1905 127.635 13.4748C127.183 13.7462 126.827 14.1209 126.569 14.5991C126.323 15.0643 126.201 15.6071 126.201 16.2274C126.201 16.8477 126.323 17.3969 126.569 17.8751C126.827 18.3532 127.183 18.728 127.635 18.9994C128.087 19.2708 128.598 19.4065 129.166 19.4065ZM136.627 21.5V10.9548H139.011V13.3972L138.74 12.9902C138.934 12.2277 139.322 11.6591 139.903 11.2843C140.485 10.9095 141.17 10.7222 141.958 10.7222C142.824 10.7222 143.586 10.9483 144.245 11.4006C144.904 11.8529 145.331 12.4474 145.525 13.184L144.807 13.2422C145.13 12.4022 145.615 11.7754 146.261 11.3618C146.907 10.9354 147.65 10.7222 148.49 10.7222C149.24 10.7222 149.906 10.8902 150.487 11.2262C151.082 11.5622 151.547 12.0338 151.883 12.6412C152.219 13.2357 152.387 13.9271 152.387 14.7154V21.5H149.847V15.3163C149.847 14.8511 149.763 14.4505 149.595 14.1145C149.427 13.7785 149.195 13.52 148.898 13.3391C148.6 13.1452 148.238 13.0483 147.812 13.0483C147.411 13.0483 147.056 13.1452 146.746 13.3391C146.436 13.52 146.197 13.7785 146.029 14.1145C145.861 14.4505 145.777 14.8511 145.777 15.3163V21.5H143.237V15.3163C143.237 14.8511 143.153 14.4505 142.985 14.1145C142.817 13.7785 142.578 13.52 142.268 13.3391C141.971 13.1452 141.615 13.0483 141.202 13.0483C140.801 13.0483 140.446 13.1452 140.136 13.3391C139.826 13.52 139.586 13.7785 139.418 14.1145C139.25 14.4505 139.166 14.8511 139.166 15.3163V21.5H136.627ZM154.147 21.5V10.9548H156.687V21.5H154.147ZM154.147 9.77231V7.05846H156.687V9.77231H154.147ZM158.644 21.5V10.9548H161.028V13.0289L160.834 12.6606C161.08 12.0274 161.48 11.5492 162.036 11.2262C162.605 10.8902 163.264 10.7222 164.013 10.7222C164.789 10.7222 165.474 10.8902 166.068 11.2262C166.675 11.5622 167.147 12.0338 167.483 12.6412C167.819 13.2357 167.987 13.9271 167.987 14.7154V21.5H165.448V15.3163C165.448 14.8511 165.357 14.4505 165.176 14.1145C164.995 13.7785 164.743 13.52 164.42 13.3391C164.11 13.1452 163.742 13.0483 163.315 13.0483C162.902 13.0483 162.534 13.1452 162.211 13.3391C161.887 13.52 161.635 13.7785 161.455 14.1145C161.274 14.4505 161.183 14.8511 161.183 15.3163V21.5H158.644Z" fill="white"/>
</svg>
