<svg width="19" height="18" viewBox="0 0 19 18" fill="none" xmlns="http://www.w3.org/2000/svg">
<path fill-rule="evenodd" clip-rule="evenodd" d="M9.50085 0.717773C4.81143 0.717773 1.00879 4.51957 1.00879 9.20984C1.00879 12.962 3.44202 16.145 6.81618 17.2681C7.24044 17.3468 7.39626 17.0839 7.39626 16.8596C7.39626 16.6571 7.38838 15.9881 7.38473 15.2785C5.02223 15.7922 4.52371 14.2766 4.52371 14.2766C4.13741 13.295 3.58082 13.034 3.58082 13.034C2.8102 12.5069 3.6389 12.5179 3.6389 12.5179C4.49151 12.5777 4.94066 13.393 4.94066 13.393C5.69807 14.691 6.92727 14.3158 7.41187 14.0989C7.48809 13.5501 7.70816 13.1753 7.95102 12.9633C6.06482 12.7488 4.08187 12.0205 4.08187 8.76659C4.08187 7.83945 4.41374 7.0819 4.95698 6.48705C4.86866 6.2733 4.57799 5.40959 5.0391 4.23987C5.0391 4.23987 5.75207 4.01163 7.37488 5.11034C8.05241 4.92204 8.77902 4.8274 9.50085 4.82416C10.2223 4.8274 10.9493 4.92176 11.6281 5.11005C13.2489 4.01135 13.9611 4.23959 13.9611 4.23959C14.4233 5.40916 14.1326 6.27302 14.0444 6.48677C14.5889 7.08162 14.9184 7.83916 14.9184 8.7663C14.9184 12.028 12.9318 12.746 11.0408 12.9564C11.3456 13.2199 11.617 13.7368 11.617 14.529C11.617 15.6652 11.6071 16.5797 11.6071 16.8594C11.6071 17.0854 11.7601 17.3502 12.1904 17.2668C15.5626 16.1426 17.9931 12.9606 17.9931 9.20984C17.9929 4.51985 14.1907 0.717773 9.50085 0.717773Z" fill="#181616"/>
<path d="M4.22465 12.9099C4.20595 12.9521 4.13957 12.9647 4.0791 12.9359C4.01723 12.9083 3.98278 12.8508 4.00274 12.8085C4.02103 12.7649 4.08754 12.7529 4.14899 12.782C4.21087 12.8097 4.24603 12.8678 4.22451 12.91L4.22465 12.9099ZM4.56862 13.2936C4.52826 13.3312 4.44909 13.3137 4.39537 13.2543C4.33968 13.1952 4.32928 13.116 4.37048 13.0779C4.41239 13.0405 4.48917 13.0582 4.54485 13.1173C4.60026 13.1772 4.61123 13.2557 4.56876 13.2938L4.56862 13.2936ZM4.90359 13.7826C4.85156 13.8189 4.76634 13.785 4.71374 13.7095C4.66171 13.6338 4.66171 13.5431 4.71515 13.507C4.7676 13.4707 4.85156 13.5034 4.90499 13.5783C4.95674 13.6549 4.95674 13.7457 4.90359 13.7826ZM5.36217 14.2552C5.31576 14.3066 5.21648 14.2928 5.14392 14.2229C5.06981 14.1544 5.04914 14.0569 5.09568 14.0058C5.14293 13.9543 5.24264 13.9686 5.31562 14.0381C5.38973 14.1064 5.41209 14.204 5.36245 14.2551L5.36217 14.2552ZM5.99498 14.5296C5.97431 14.5961 5.87896 14.6263 5.78264 14.5979C5.68659 14.5688 5.62373 14.4911 5.64342 14.4238C5.6631 14.3568 5.75915 14.3254 5.85604 14.3556C5.95209 14.3846 6.01495 14.4619 5.99498 14.5296ZM6.69009 14.5803C6.69248 14.6504 6.61092 14.7083 6.51009 14.7097C6.40842 14.7121 6.32615 14.6553 6.32517 14.5864C6.32517 14.5157 6.40504 14.4584 6.50657 14.4565C6.6074 14.4546 6.69023 14.5109 6.69023 14.5802L6.69009 14.5803ZM7.33668 14.4704C7.34878 14.5386 7.2786 14.6088 7.17834 14.6275C7.0799 14.6457 6.98849 14.6033 6.97584 14.5356C6.96374 14.4656 7.03518 14.3954 7.13362 14.3773C7.23403 14.36 7.32403 14.4011 7.33668 14.4704Z" fill="#181616"/>
</svg>
