<svg width="204" height="36" viewBox="0 0 1403 250" fill="none" xmlns="http://www.w3.org/2000/svg">
<path d="M31.3719 185.549V83.9564H0V64.4506H84.5254V83.9564H53.6411V185.549H31.3719Z" fill="#2A3547"/>
<path d="M110.114 187.5C103.937 187.5 98.5731 186.471 94.0218 184.412C89.4704 182.353 85.9485 179.427 83.4561 175.634C80.9637 171.733 79.7175 167.236 79.7175 162.142C79.7175 157.266 80.8011 152.931 82.9685 149.138C85.1358 145.237 88.4951 141.986 93.0465 139.386C97.5978 136.785 103.341 134.943 110.277 133.859L139.21 129.145V145.4L114.34 149.626C110.114 150.385 106.971 151.739 104.913 153.69C102.854 155.64 101.824 158.187 101.824 161.33C101.824 164.364 102.962 166.802 105.238 168.644C107.622 170.378 110.548 171.245 114.015 171.245C118.458 171.245 122.359 170.324 125.719 168.482C129.186 166.531 131.841 163.876 133.684 160.517C135.634 157.158 136.61 153.473 136.61 149.464V126.707C136.61 122.914 135.092 119.771 132.058 117.279C129.132 114.678 125.231 113.378 120.355 113.378C115.803 113.378 111.74 114.624 108.164 117.116C104.696 119.5 102.149 122.697 100.524 126.707L83.131 118.254C84.8649 113.594 87.574 109.585 91.2584 106.226C95.0512 102.758 99.4942 100.049 104.587 98.0982C109.681 96.1476 115.207 95.1723 121.167 95.1723C128.428 95.1723 134.822 96.5269 140.348 99.236C145.875 101.837 150.155 105.521 153.19 110.289C156.332 114.949 157.903 120.422 157.903 126.707V185.549H137.747V170.432L142.299 170.107C140.023 173.9 137.314 177.097 134.171 179.698C131.029 182.19 127.453 184.141 123.443 185.549C119.434 186.85 114.991 187.5 110.114 187.5Z" fill="#2A3547"/>
<path d="M174.334 185.549V97.1229H195.627V185.549H174.334ZM174.334 87.2074V64.4506H195.627V87.2074H174.334Z" fill="#2A3547"/>
<path d="M212.037 185.549V62.5H233.331V185.549H212.037Z" fill="#2A3547"/>
<path d="M272.01 185.549L241.614 97.1229H264.045L286.314 164.256L278.512 164.093L302.244 97.1229H321.1L344.669 164.093L336.867 164.256L359.136 97.1229H381.568L351.171 185.549H332.153L308.096 115.491H315.248L290.866 185.549H272.01Z" fill="#2A3547"/>
<path d="M389.99 185.549V97.1229H411.284V185.549H389.99ZM389.99 87.2074V64.4506H411.284V87.2074H389.99Z" fill="#2A3547"/>
<path d="M427.694 185.549V97.1229H447.687V114.516L446.062 111.427C448.121 106.117 451.48 102.108 456.14 99.3986C460.908 96.5811 466.435 95.1723 472.72 95.1723C479.222 95.1723 484.965 96.5811 489.95 99.3986C495.043 102.216 498.998 106.171 501.816 111.265C504.633 116.249 506.042 122.047 506.042 128.657V185.549H484.748V133.696C484.748 129.795 483.99 126.436 482.473 123.618C480.956 120.801 478.842 118.634 476.133 117.116C473.532 115.491 470.444 114.678 466.868 114.678C463.4 114.678 460.312 115.491 457.603 117.116C454.894 118.634 452.78 120.801 451.263 123.618C449.746 126.436 448.988 129.795 448.988 133.696V185.549H427.694Z" fill="#2A3547"/>
<path d="M561.922 187.5C553.361 187.5 545.721 185.495 539.003 181.486C532.284 177.368 526.974 171.787 523.073 164.743C519.172 157.699 517.221 149.897 517.221 141.336C517.221 132.667 519.172 124.865 523.073 117.929C526.974 110.994 532.284 105.467 539.003 101.349C545.83 97.2312 553.415 95.1723 561.76 95.1723C568.478 95.1723 574.438 96.5269 579.64 99.236C584.95 101.837 589.122 105.521 592.156 110.289L588.905 114.678V62.5H610.199V185.549H590.043V168.482L592.319 172.708C589.285 177.476 585.058 181.161 579.64 183.761C574.222 186.254 568.316 187.5 561.922 187.5ZM564.198 167.994C569.074 167.994 573.355 166.856 577.039 164.581C580.724 162.305 583.595 159.162 585.654 155.153C587.822 151.143 588.905 146.538 588.905 141.336C588.905 136.243 587.822 131.692 585.654 127.682C583.595 123.564 580.724 120.367 577.039 118.092C573.355 115.816 569.074 114.678 564.198 114.678C559.43 114.678 555.149 115.87 551.357 118.254C547.564 120.53 544.584 123.673 542.416 127.682C540.357 131.583 539.328 136.135 539.328 141.336C539.328 146.538 540.357 151.143 542.416 155.153C544.584 159.162 547.564 162.305 551.357 164.581C555.149 166.856 559.43 167.994 564.198 167.994Z" fill="#2A3547"/>
<path d="M618.631 185.549L660.406 64.4506H689.015L730.79 185.549H706.733L698.118 159.542H651.304L642.526 185.549H618.631ZM657.643 140.036H691.778L671.622 79.7302H677.799L657.643 140.036Z" fill="#2A3547"/>
<path d="M777.179 187.5C768.618 187.5 760.978 185.495 754.259 181.486C747.541 177.368 742.231 171.787 738.329 164.743C734.428 157.699 732.478 149.897 732.478 141.336C732.478 132.667 734.428 124.865 738.329 117.929C742.231 110.994 747.541 105.467 754.259 101.349C761.086 97.2312 768.672 95.1723 777.016 95.1723C783.735 95.1723 789.695 96.5269 794.896 99.236C800.206 101.837 804.378 105.521 807.413 110.289L804.162 114.678V62.5H825.456V185.549H805.3V168.482L807.575 172.708C804.541 177.476 800.315 181.161 794.896 183.761C789.478 186.254 783.572 187.5 777.179 187.5ZM779.454 167.994C784.331 167.994 788.611 166.856 792.296 164.581C795.98 162.305 798.852 159.162 800.911 155.153C803.078 151.143 804.162 146.538 804.162 141.336C804.162 136.243 803.078 131.692 800.911 127.682C798.852 123.564 795.98 120.367 792.296 118.092C788.611 115.816 784.331 114.678 779.454 114.678C774.686 114.678 770.406 115.87 766.613 118.254C762.82 120.53 759.84 123.673 757.673 127.682C755.614 131.583 754.584 136.135 754.584 141.336C754.584 146.538 755.614 151.143 757.673 155.153C759.84 159.162 762.82 162.305 766.613 164.581C770.406 166.856 774.686 167.994 779.454 167.994Z" fill="#2A3547"/>
<path d="M842.015 185.549V97.1229H862.009V117.604L859.733 114.191C861.359 107.797 864.61 103.029 869.486 99.8862C874.362 96.7436 880.106 95.1723 886.716 95.1723C893.977 95.1723 900.37 97.0687 905.897 100.862C911.424 104.654 915 109.639 916.625 115.816L910.611 116.304C913.32 109.26 917.384 104.004 922.802 100.536C928.22 96.9603 934.451 95.1723 941.495 95.1723C947.78 95.1723 953.361 96.5811 958.238 99.3986C963.223 102.216 967.124 106.171 969.941 111.265C972.759 116.249 974.167 122.047 974.167 128.657V185.549H952.874V133.696C952.874 129.795 952.169 126.436 950.76 123.618C949.352 120.801 947.401 118.634 944.909 117.116C942.416 115.491 939.382 114.678 935.806 114.678C932.447 114.678 929.467 115.491 926.866 117.116C924.265 118.634 922.26 120.801 920.851 123.618C919.443 126.436 918.738 129.795 918.738 133.696V185.549H897.444V133.696C897.444 129.795 896.74 126.436 895.331 123.618C893.923 120.801 891.918 118.634 889.317 117.116C886.825 115.491 883.844 114.678 880.377 114.678C877.017 114.678 874.037 115.491 871.437 117.116C868.836 118.634 866.831 120.801 865.422 123.618C864.014 126.436 863.309 129.795 863.309 133.696V185.549H842.015Z" fill="#2A3547"/>
<path d="M988.931 185.549V97.1229H1010.23V185.549H988.931ZM988.931 87.2074V64.4506H1010.23V87.2074H988.931Z" fill="#2A3547"/>
<path d="M1026.64 185.549V97.1229H1046.63V114.516L1045 111.427C1047.06 106.117 1050.42 102.108 1055.08 99.3986C1059.85 96.5811 1065.38 95.1723 1071.66 95.1723C1078.16 95.1723 1083.91 96.5811 1088.89 99.3986C1093.98 102.216 1097.94 106.171 1100.76 111.265C1103.57 116.249 1104.98 122.047 1104.98 128.657V185.549H1083.69V133.696C1083.69 129.795 1082.93 126.436 1081.41 123.618C1079.9 120.801 1077.78 118.634 1075.07 117.116C1072.47 115.491 1069.39 114.678 1065.81 114.678C1062.34 114.678 1059.25 115.491 1056.54 117.116C1053.83 118.634 1051.72 120.801 1050.2 123.618C1048.69 126.436 1047.93 129.795 1047.93 133.696V185.549H1026.64Z" fill="#2A3547"/>
<path d="M1359.22 198.204C1377.87 177.491 1387.91 150.437 1387.29 122.569C1386.67 94.7007 1375.43 68.1211 1355.88 48.2593L1320.28 83.3153C1330.9 94.1046 1337 108.543 1337.34 123.681C1337.68 138.82 1332.22 153.516 1322.09 164.767L1359.22 198.204Z" fill="#49BEFF"/>
<path d="M1355.74 48.0736C1339.49 31.6593 1318.48 20.8059 1295.69 17.0679C1272.9 13.3298 1249.52 16.8989 1228.88 27.2639L1251.31 71.9103C1262.52 66.2799 1275.22 64.3411 1287.6 66.3717C1299.98 68.4023 1311.4 74.298 1320.22 83.2145L1355.74 48.0736Z" fill="#13DEB9"/>
<path d="M1236.44 23.8228C1221.26 30.0558 1207.68 39.6245 1196.7 51.8199C1185.72 64.0152 1177.63 78.5248 1173.02 94.2735C1168.4 110.022 1167.4 126.606 1170.07 142.798C1172.74 158.989 1179.01 174.372 1188.44 187.807C1197.86 201.242 1210.18 212.385 1224.5 220.411C1238.81 228.436 1254.74 233.138 1271.12 234.168C1287.5 235.199 1303.9 232.531 1319.1 226.363C1334.31 220.194 1347.93 210.684 1358.97 198.535L1321.98 164.948C1315.98 171.547 1308.58 176.713 1300.32 180.064C1292.06 183.415 1283.15 184.864 1274.26 184.304C1265.36 183.744 1256.71 181.19 1248.93 176.831C1241.16 172.471 1234.46 166.418 1229.34 159.12C1224.22 151.822 1220.81 143.465 1219.36 134.67C1217.91 125.875 1218.46 116.866 1220.97 108.311C1223.47 99.756 1227.87 91.8742 1233.83 85.2495C1239.8 78.6248 1247.17 73.4269 1255.42 70.041L1236.44 23.8228Z" fill="#5D87FF"/>
</svg>
